<?xml version="1.0" encoding="utf-8"?>
<svg version="1.1" id="Layer_1" xmlns="http://www.w3.org/2000/svg" xmlns:xlink="http://www.w3.org/1999/xlink" x="0px" y="0px"
	 viewBox="0 0 132 78" style="enable-background:new 0 0 132 78;" xml:space="preserve">
<style type="text/css">
	.st0{fill:#859794;}
</style>
<g>
	<path class="st0" d="M105,39c0,1.3,0.2,2.5,0.7,3.7c0.4,1.1,1,2,1.8,2.8c0.8,0.8,1.8,1.5,2.8,2c1.1,0.5,2.4,0.7,3.6,0.7
		c2.6-0.2,5-1.8,6.2-4.2l-0.1,1.6c-0.9,1.7-3.8,3.6-7.2,3.6c-1.6,0-3.2-0.3-4.6-0.8c-1.3-0.5-2.4-1.3-3.4-2.2
		c-0.9-0.9-1.7-2-2.2-3.2c-0.5-1.2-0.8-2.6-0.8-3.9c0-1.3,0.3-2.7,0.8-3.9c0.5-1.2,1.3-2.4,2.2-3.3c1-1,2.2-1.7,3.5-2.2
		c1.4-0.6,2.9-0.9,4.5-0.8c1,0,2,0.1,2.9,0.4c0.8,0.3,1.6,0.6,2.4,1.1c0.7,0.5,1.4,1,1.9,1.6v2.7c-0.8-2.8-3.3-4.7-6.2-4.8
		c-1.2,0-2.4,0.2-3.5,0.7c-1.1,0.4-2,1.1-2.8,1.9c-0.8,0.9-1.5,1.9-1.9,3C105.2,36.5,105,37.8,105,39"/>
	<polygon class="st0" points="27.9,29.2 27.9,30.4 21.2,30.4 21.2,48.8 18.2,48.8 18.2,30.4 11.5,30.4 11.5,29.2 	"/>
	<path class="st0" d="M34.9,38.7h2.3c0.7,0,1.4-0.1,2-0.3c0.6-0.2,1.1-0.5,1.6-0.9c0.5-0.4,0.8-0.8,1.1-1.4c0.3-0.6,0.4-1.2,0.4-1.8
		c0-0.6-0.1-1.2-0.3-1.7c-0.2-0.5-0.5-0.9-0.8-1.3c-0.4-0.4-0.8-0.7-1.3-0.9c-0.5-0.2-1.1-0.3-1.7-0.3h-3.2V38.7L34.9,38.7z
		 M30.5,29.2h7.9c1,0,2.1,0.1,3.1,0.4c0.8,0.2,1.5,0.5,2.2,1c0.6,0.4,1,1,1.3,1.6c0.3,0.6,0.5,1.3,0.5,2c0,0.6-0.1,1.2-0.3,1.7
		c-0.2,0.5-0.6,1-1,1.4c-0.4,0.4-0.9,0.8-1.5,1.1c-0.6,0.3-1.3,0.6-2,0.7c2.7,2,4.8,8.6,8.6,9.5h-4c-3.1,0-4.9-6.5-8-9.2
		c-1,0-2.3,0-2.3,0v9.2H32V31.1C32,30.2,31.4,29.5,30.5,29.2"/>
	<path class="st0" d="M60.2,48.4c1.1,0,2.2-0.2,3.2-0.7c0.9-0.5,1.7-1.2,2.3-2c0.7-0.9,1.1-1.9,1.4-3c0.3-1.2,0.5-2.5,0.5-3.8
		c0-1.3-0.1-2.5-0.5-3.8c-0.3-1.1-0.8-2.1-1.4-3c-0.6-0.8-1.4-1.5-2.3-1.9c-1-0.5-2.1-0.7-3.2-0.7c-1.1,0-2.2,0.2-3.2,0.7
		c-0.9,0.4-1.7,1.1-2.3,1.9c-0.7,0.9-1.1,1.9-1.4,3c-0.3,1.2-0.5,2.5-0.5,3.8c0,1.3,0.2,2.6,0.5,3.8c0.3,1.1,0.7,2.1,1.4,3
		c0.6,0.8,1.4,1.5,2.3,2C58,48.2,59.1,48.4,60.2,48.4 M60.2,49.3c-1.5,0-2.9-0.3-4.2-0.8c-2.6-1-4.6-3-5.7-5.5
		c-0.6-1.3-0.8-2.6-0.8-4c0-1.4,0.3-2.7,0.8-4c0.5-1.2,1.3-2.3,2.3-3.2c1-0.9,2.2-1.7,3.4-2.2c2.7-1.1,5.7-1.1,8.5,0
		c1.3,0.5,2.4,1.2,3.4,2.2c1,0.9,1.7,2,2.3,3.2c0.6,1.2,0.8,2.6,0.8,4c0,1.4-0.3,2.7-0.8,4c-1.1,2.5-3.2,4.5-5.7,5.5
		C63.1,49,61.6,49.3,60.2,49.3"/>
	<path class="st0" d="M78.6,38.8c0.4,0.1,0.8,0.2,1.2,0.3c0.6,0.1,1.1,0.2,1.7,0.2c0.6,0,1.3-0.1,1.9-0.4c0.5-0.2,1-0.5,1.3-0.9
		c0.4-0.4,0.6-0.9,0.8-1.4c0.4-1.2,0.3-2.5-0.1-3.7c-0.2-0.6-0.5-1.1-0.9-1.5c-0.4-0.4-0.9-0.8-1.4-1c-0.6-0.2-1.2-0.3-1.8-0.3h-2.7
		L78.6,38.8L78.6,38.8z M74.2,29.2h7.3c1,0,1.9,0.1,2.9,0.4c0.8,0.2,1.6,0.6,2.3,1.1c0.6,0.5,1.2,1.1,1.6,1.8
		c0.4,0.7,0.6,1.6,0.6,2.4c0,0.8-0.2,1.6-0.6,2.3c-0.3,0.6-0.8,1.2-1.4,1.6c-0.6,0.5-1.3,0.8-2.1,1c-2,0.4-4.1,0.4-6.2,0v9h-2.9
		V31.2C75.6,30.3,75,29.5,74.2,29.2"/>
	<path class="st0" d="M92.3,29.2h4.4v19.5h-2.9V31.2C93.7,30.3,93.1,29.5,92.3,29.2"/>
</g>
</svg>
