<svg xmlns="http://www.w3.org/2000/svg" width="150" height="29" viewBox="0 0 150 29"><title>  logo</title><desc>  Created with Sketch.</desc><g fill="none"><g fill="#859794"><g transform="translate(-636 -33)translate(636 33)"><path d="M129.4 14C129.4 15.8 129.6 17.5 130.3 19.1 130.9 20.7 131.7 21.9 132.8 23 133.9 24.1 135.2 25.1 136.6 25.8 138.1 26.5 139.9 26.7 141.5 26.7 145.1 26.5 148.4 24.2 150 20.9L149.9 23.1C148.6 25.5 144.7 28.1 140 28.1 137.8 28.1 135.7 27.7 133.7 27 132 26.3 130.5 25.2 129.1 24 127.9 22.7 126.8 21.2 126.1 19.5 125.4 17.9 125 15.9 125 14.1 125 12.3 125.4 10.4 126.1 8.7 126.8 7.1 127.9 5.4 129.1 4.2 130.5 2.8 132.1 1.8 133.9 1.1 135.8 0.3 137.8-0.1 140 0 141.4 0 142.8 0.2 144 0.6 145.1 1 146.2 1.4 147.3 2.1 148.2 2.8 149.2 3.5 149.9 4.3L149.9 8.1C148.8 4.2 145.4 1.5 141.4 1.4 139.8 1.4 138.1 1.7 136.6 2.4 135.1 2.9 133.9 3.9 132.8 5 131.7 6.3 130.7 7.6 130.2 9.2 129.6 10.5 129.4 12.3 129.4 14"/><polygon points="22.7 0 22.7 1.7 13.4 1.7 13.4 27.3 9.3 27.3 9.3 1.7 0 1.7 0 0"/><path d="M32.6 13L35.8 13C36.7 13 37.7 12.9 38.5 12.6 39.3 12.3 40 11.9 40.7 11.4 41.4 10.8 41.8 10.3 42.2 9.4 42.6 8.6 42.7 7.8 42.7 7 42.7 6.2 42.6 5.3 42.3 4.7 42.1 4 41.6 3.4 41.2 2.9 40.7 2.3 40.1 1.9 39.5 1.6 38.8 1.4 37.9 1.2 37.1 1.2L32.7 1.2 32.7 13 32.6 13ZM26.6 0L37.4 0C38.8 0 40.3 0.1 41.6 0.5 42.7 0.8 43.7 1.2 44.7 1.9 45.5 2.5 46 3.3 46.4 4.1 46.9 4.9 47.1 5.9 47.1 6.8 47.1 7.7 47 8.5 46.7 9.2 46.4 9.9 45.9 10.5 45.3 11.1 44.8 11.6 44.1 12.2 43.3 12.6 42.5 13 41.5 13.4 40.6 13.6 44.3 16.3 47.1 25.3 52.3 26.6L46.9 26.6C42.6 26.6 40.1 17.7 35.9 14 34.5 14 32.7 14 32.7 14L32.7 26.6 28.6 26.6 28.6 2.6C28.6 1.4 27.8 0.4 26.6 0"/><path d="M67.1 26.9C68.6 26.9 70.2 26.6 71.5 25.9 72.8 25.2 73.9 24.3 74.7 23.2 75.7 22 76.2 20.6 76.6 19.1 77.1 17.4 77.3 15.7 77.3 13.9 77.3 12.1 77.2 10.4 76.6 8.7 76.2 7.2 75.5 5.8 74.7 4.6 73.9 3.5 72.8 2.5 71.5 2 70.2 1.3 68.6 1 67.1 1 65.6 1 64.1 1.3 62.7 2 61.5 2.5 60.4 3.5 59.5 4.6 58.6 5.8 58 7.2 57.6 8.7 57.2 10.3 56.9 12.1 56.9 13.9 56.9 15.7 57.2 17.4 57.6 19.1 58 20.6 58.6 22 59.5 23.2 60.4 24.3 61.5 25.2 62.7 25.9 64.1 26.6 65.6 26.9 67.1 26.9M67.1 28.1C65 28.1 63.1 27.7 61.3 27 57.7 25.7 55 22.9 53.4 19.5 52.6 17.7 52.3 15.9 52.3 14 52.3 12.1 52.8 10.3 53.4 8.5 54.1 6.9 55.2 5.4 56.6 4.1 58 2.9 59.7 1.8 61.3 1.1 65-0.4 69.2-0.4 73.1 1.1 74.9 1.8 76.4 2.8 77.8 4.1 79.1 5.4 80.1 6.9 80.9 8.5 81.8 10.2 82 12.1 82 14 82 15.9 81.6 17.7 80.9 19.5 79.4 22.9 76.5 25.7 73.1 27 71.1 27.7 69.1 28.1 67.1 28.1"/><path d="M92.8 13.4C93.4 13.5 93.9 13.7 94.5 13.8 95.3 14 96 14.1 96.8 14.1 97.6 14.1 98.6 14 99.4 13.5 100.1 13.3 100.8 12.8 101.2 12.3 101.8 11.7 102.1 11 102.3 10.3 102.9 8.6 102.7 6.8 102.2 5.2 101.9 4.3 101.5 3.6 101 3.1 100.4 2.5 99.7 2 99 1.7 98.2 1.4 97.4 1.3 96.5 1.3L92.8 1.3 92.8 13.4 92.8 13.4ZM86.7 0L96.8 0C98.2 0 99.4 0.1 100.8 0.6 101.9 0.8 103 1.4 104 2.1 104.8 2.8 105.6 3.6 106.2 4.6 106.8 5.6 107 6.8 107 8 107 9.1 106.8 10.2 106.2 11.2 105.8 12 105.1 12.8 104.3 13.4 103.4 14.1 102.5 14.5 101.4 14.8 98.6 15.3 95.7 15.3 92.8 14.8L92.8 27.3 88.8 27.3 88.8 2.8C88.7 1.5 87.8 0.4 86.7 0"/><path d="M111.7 0L118 0 118 27.3 113.8 27.3 113.8 2.8C113.7 1.5 112.9 0.4 111.7 0"/></g></g></g></svg>